<svg viewBox="0 0 800 600" xmlns="http://www.w3.org/2000/svg">
  <!-- Background gradient -->
  <defs>
    <linearGradient id="backgroundGradient" x1="0%" y1="0%" x2="100%" y2="100%">
      <stop offset="0%" stop-color="#000a12" />
      <stop offset="100%" stop-color="#001a2c" />
    </linearGradient>
    
    <!-- Glow filters -->
    <filter id="blueGlow" x="-20%" y="-20%" width="140%" height="140%">
      <feGaussianBlur stdDeviation="15" result="blur" />
      <feFlood flood-color="#00e5ff" result="glowColor" />
      <feComposite in="glowColor" in2="blur" operator="in" result="softGlow" />
      <feMerge>
        <feMergeNode in="softGlow" />
        <feMergeNode in="SourceGraphic" />
      </feMerge>
    </filter>
    
    <filter id="greenGlow" x="-20%" y="-20%" width="140%" height="140%">
      <feGaussianBlur stdDeviation="15" result="blur" />
      <feFlood flood-color="#00ff9d" result="glowColor" />
      <feComposite in="glowColor" in2="blur" operator="in" result="softGlow" />
      <feMerge>
        <feMergeNode in="softGlow" />
        <feMergeNode in="SourceGraphic" />
      </feMerge>
    </filter>
  </defs>
  
  <!-- Background -->
  <rect width="800" height="600" fill="url(#backgroundGradient)" />
  
  <!-- Abstract water-like waves -->
  <path d="M0,350 
           C100,320 200,380 300,350 
           C400,320 500,380 600,350 
           C700,320 800,380 900,350 
           L900,600 L0,600 Z" 
        fill="#00b8d4" fill-opacity="0.15" />
  
  <path d="M0,380 
           C150,340 250,420 400,380 
           C550,340 650,420 800,380 
           L800,600 L0,600 Z" 
        fill="#00bfa5" fill-opacity="0.15" />
  
  <!-- Main skincare bottle -->
  <g filter="url(#blueGlow)">
    <path d="M400,150 L460,150 L470,190 L470,450 C470,470 450,490 430,490 L370,490 C350,490 330,470 330,450 L330,190 L340,150 Z" 
          fill="none" stroke="#00e5ff" stroke-width="4" />
    
    <!-- Bottle cap -->
    <rect x="370" y="110" width="60" height="40" rx="5" fill="none" stroke="#00e5ff" stroke-width="4" />
  </g>
  
  <!-- Smaller serum dropper bottle -->
  <g filter="url(#greenGlow)" transform="translate(550, 270)">
    <path d="M0,80 L70,80 L70,220 C70,235 55,250 40,250 L30,250 C15,250 0,235 0,220 Z" 
          fill="none" stroke="#00ff9d" stroke-width="3" />
    
    <!-- Dropper cap -->
    <rect x="10" y="50" width="50" height="30" rx="5" fill="none" stroke="#00ff9d" stroke-width="3" />
    <line x1="35" y1="20" x2="35" y2="80" stroke="#00ff9d" stroke-width="3" />
    <circle cx="35" cy="15" r="8" fill="none" stroke="#00ff9d" stroke-width="3" />
  </g>
  
  <!-- Small jar -->
  <g filter="url(#blueGlow)" transform="translate(220, 320)">
    <path d="M10,30 C10,13 40,13 40,30 L40,100 C40,115 10,115 10,100 Z" 
          fill="none" stroke="#80deea" stroke-width="3" />
    <ellipse cx="25" cy="30" rx="15" ry="7" fill="none" stroke="#80deea" stroke-width="3" />
    <ellipse cx="25" cy="100" rx="15" ry="7" fill="none" stroke="#80deea" stroke-width="3" />
  </g>
  
  <!-- Decorative elements -->
  <!-- Bubbles -->
  <circle cx="150" cy="200" r="25" fill="none" stroke="#00e5ff" stroke-width="2" filter="url(#blueGlow)" />
  <circle cx="180" cy="160" r="15" fill="none" stroke="#00e5ff" stroke-width="2" filter="url(#blueGlow)" />
  <circle cx="120" cy="170" r="10" fill="none" stroke="#00e5ff" stroke-width="2" filter="url(#blueGlow)" />
  
  <circle cx="650" cy="150" r="20" fill="none" stroke="#00ff9d" stroke-width="2" filter="url(#greenGlow)" />
  <circle cx="680" cy="190" r="12" fill="none" stroke="#00ff9d" stroke-width="2" filter="url(#greenGlow)" />
  <circle cx="620" cy="180" r="8" fill="none" stroke="#00ff9d" stroke-width="2" filter="url(#greenGlow)" />
  
  <!-- Abstract leaf/drop shapes -->
  <path d="M480,100 C530,50 580,100 530,150 C480,100 480,100 480,100" 
        fill="none" stroke="#00ff9d" stroke-width="2" filter="url(#greenGlow)" />
  
  <path d="M320,100 C270,50 220,100 270,150 C320,100 320,100 320,100" 
        fill="none" stroke="#00e5ff" stroke-width="2" filter="url(#blueGlow)" />
  
  <!-- Circular brand element -->
  <circle cx="400" cy="300" r="130" fill="none" stroke="#00e5ff" stroke-width="2" stroke-opacity="0.3" />
  <circle cx="400" cy="300" r="120" fill="none" stroke="#00ff9d" stroke-width="2" stroke-opacity="0.3" />
  <circle cx="400" cy="300" r="110" fill="none" stroke="#00e5ff" stroke-width="1" stroke-opacity="0.3" />
</svg>